<mxfile host="Electron" modified="2025-02-23T14:20:29.390Z" agent="Mozilla/5.0 (Windows NT 10.0; Win64; x64) AppleWebKit/537.36 (KHTML, like Gecko) draw.io/21.3.7 Chrome/112.0.5615.204 Electron/24.5.0 Safari/537.36" etag="GNzgFTlIJ_Tbu05yjx5s" version="21.3.7" type="device">
  <diagram id="diagram1" name="Page-1">
    <mxGraphModel dx="675" dy="390" grid="1" gridSize="10" guides="1" tooltips="1" connect="1" arrows="1" fold="1" page="1" pageScale="1" pageWidth="850" pageHeight="1100" math="1" shadow="0">
      <root>
        <mxCell id="0" />
        <mxCell id="1" parent="0" />
        <mxCell id="bgS" value="Source Space \(S\)" style="rounded=0;whiteSpace=wrap;html=1;fillColor=#DAE8FC;strokeColor=none;fontStyle=1;align=center;verticalAlign=top;fontSize=12;" parent="1" vertex="1">
          <mxGeometry x="700" y="50" width="290" height="310" as="geometry" />
        </mxCell>
        <mxCell id="bgD" value="Destination Space \(D\)" style="rounded=0;whiteSpace=wrap;html=1;fillColor=#FFF2CC;strokeColor=none;fontStyle=1;align=center;verticalAlign=top;fontSize=12;" parent="1" vertex="1">
          <mxGeometry x="530" y="50" width="150" height="310" as="geometry" />
        </mxCell>
        <mxCell id="VqqcHdD6JBQOt38PYsMC-5" value="The equivalence class of&amp;nbsp;&lt;math xmlns=&quot;http://www.w3.org/1998/Math/MathML&quot; style=&quot;font-size: 6px;&quot;&gt;&lt;mrow style=&quot;font-size: 6px;&quot;&gt;&lt;msub style=&quot;font-size: 6px;&quot;&gt;&lt;mi style=&quot;font-size: 6px;&quot;&gt;\(s_0\)&lt;/mi&gt;&lt;/msub&gt;&lt;/mrow&gt;&lt;/math&gt;&lt;span style=&quot;border-color: var(--border-color);&quot; class=&quot;katex&quot;&gt;&lt;/span&gt;" style="rounded=1;whiteSpace=wrap;html=1;fillColor=none;dashed=1;strokeColor=#888888;arcSize=8;fontSize=6;verticalAlign=top;fontColor=#363636;" vertex="1" parent="1">
          <mxGeometry x="800" y="95" width="90" height="90" as="geometry" />
        </mxCell>
        <mxCell id="VqqcHdD6JBQOt38PYsMC-6" value="The equivalence class of &lt;span class=&quot;katex-mathml&quot; style=&quot;font-size: 6px;&quot;&gt;&lt;math xmlns=&quot;http://www.w3.org/1998/Math/MathML&quot; style=&quot;font-size: 6px;&quot;&gt;&lt;mrow style=&quot;font-size: 6px;&quot;&gt;&lt;msub style=&quot;font-size: 6px;&quot;&gt;&lt;mi style=&quot;font-size: 6px;&quot;&gt;\(d_0\)&lt;/mi&gt;&lt;/msub&gt;&lt;/mrow&gt;&lt;/math&gt;&lt;/span&gt;&lt;span class=&quot;katex&quot; style=&quot;font-size: 6px;&quot;&gt;&lt;/span&gt;" style="rounded=1;whiteSpace=wrap;html=1;fillColor=none;dashed=1;strokeColor=#888888;arcSize=8;verticalAlign=top;fontSize=6;fontColor=#363636;" vertex="1" parent="1">
          <mxGeometry x="560" y="95" width="90" height="90" as="geometry" />
        </mxCell>
        <mxCell id="VqqcHdD6JBQOt38PYsMC-8" value="The equivalence class of&amp;nbsp;&lt;math xmlns=&quot;http://www.w3.org/1998/Math/MathML&quot; style=&quot;font-size: 6px;&quot;&gt;&lt;mrow style=&quot;font-size: 6px;&quot;&gt;&lt;msub style=&quot;font-size: 6px;&quot;&gt;&lt;mi style=&quot;font-size: 6px;&quot;&gt;\(s_1\)&lt;/mi&gt;&lt;/msub&gt;&lt;/mrow&gt;&lt;/math&gt;&lt;span style=&quot;border-color: var(--border-color);&quot; class=&quot;katex&quot;&gt;&lt;/span&gt;" style="rounded=1;whiteSpace=wrap;html=1;fillColor=none;dashed=1;strokeColor=#888888;arcSize=8;fontSize=6;verticalAlign=bottom;spacingBottom=4;fontColor=#363636;" vertex="1" parent="1">
          <mxGeometry x="730" y="240" width="230" height="90" as="geometry" />
        </mxCell>
        <mxCell id="VqqcHdD6JBQOt38PYsMC-9" value="The equivalence class of&amp;nbsp;&lt;span style=&quot;border-color: var(--border-color); font-size: 6px;&quot; class=&quot;katex-mathml&quot;&gt;&lt;math xmlns=&quot;http://www.w3.org/1998/Math/MathML&quot; style=&quot;font-size: 6px;&quot;&gt;&lt;mrow style=&quot;font-size: 6px;&quot;&gt;&lt;msub style=&quot;font-size: 6px;&quot;&gt;&lt;mi style=&quot;font-size: 6px;&quot;&gt;\(d_1\)&lt;/mi&gt;&lt;/msub&gt;&lt;/mrow&gt;&lt;/math&gt;&lt;/span&gt;&lt;span style=&quot;border-color: var(--border-color); font-size: 6px;&quot; class=&quot;katex&quot;&gt;&lt;/span&gt;" style="rounded=1;whiteSpace=wrap;html=1;fillColor=none;dashed=1;strokeColor=#888888;arcSize=8;fontSize=6;verticalAlign=bottom;spacingBottom=4;fontColor=#363636;" vertex="1" parent="1">
          <mxGeometry x="560" y="240" width="90" height="90" as="geometry" />
        </mxCell>
        <mxCell id="s0" value="\(s_0\)" style="ellipse;whiteSpace=wrap;html=1;aspect=fixed;strokeColor=#000000;fillColor=#ffffff;fontSize=12;" parent="1" vertex="1">
          <mxGeometry x="830" y="125" width="30" height="30" as="geometry" />
        </mxCell>
        <mxCell id="s1" value="\(d_0\)" style="ellipse;whiteSpace=wrap;html=1;aspect=fixed;strokeColor=#000000;fillColor=#ffffff;fontSize=12;" parent="1" vertex="1">
          <mxGeometry x="590" y="125" width="30" height="30" as="geometry" />
        </mxCell>
        <mxCell id="d0" value="\(s_1\)" style="ellipse;whiteSpace=wrap;html=1;aspect=fixed;strokeColor=#000000;fillColor=#ffffff;fontSize=12;" parent="1" vertex="1">
          <mxGeometry x="830" y="256" width="30" height="30" as="geometry" />
        </mxCell>
        <mxCell id="d1" value="\(d_1\)" style="ellipse;whiteSpace=wrap;html=1;aspect=fixed;strokeColor=#000000;fillColor=#ffffff;fontSize=12;" parent="1" vertex="1">
          <mxGeometry x="590" y="270" width="30" height="30" as="geometry" />
        </mxCell>
        <mxCell id="d0prime" value="\(s_1&#39;\)" style="ellipse;whiteSpace=wrap;html=1;aspect=fixed;strokeColor=#888888;fillColor=#F2F7FC;fontSize=12;dashed=1;" parent="1" vertex="1">
          <mxGeometry x="760" y="290" width="30" height="30" as="geometry" />
        </mxCell>
        <mxCell id="d0doubleprime" value="\(s_1&#39;&#39;\)" style="ellipse;whiteSpace=wrap;html=1;aspect=fixed;strokeColor=#888888;fillColor=#F2F7FC;fontSize=12;dashed=1;" parent="1" vertex="1">
          <mxGeometry x="910" y="290" width="30" height="30" as="geometry" />
        </mxCell>
        <mxCell id="arrow_s0_d0prime" value="(possible)" style="strokeColor=#B3B3B3;endArrow=block;endFill=1;html=1;fontSize=10;dashed=1;" parent="1" source="s0" target="d0prime" edge="1">
          <mxGeometry x="0.0028" relative="1" as="geometry">
            <mxPoint x="826" y="281" as="sourcePoint" />
            <mxPoint as="offset" />
          </mxGeometry>
        </mxCell>
        <mxCell id="arrow_s0_d0doubleprime" value="(possible)" style="strokeColor=#B3B3B3;endArrow=block;endFill=1;html=1;fontSize=10;dashed=1;" parent="1" source="s0" target="d0doubleprime" edge="1">
          <mxGeometry relative="1" as="geometry" />
        </mxCell>
        <mxCell id="arrow_s1_d1" value="Edit" style="strokeColor=#0000FF;strokeWidth=2;endArrow=block;endFill=1;html=1;fontSize=12;" parent="1" source="s1" target="d1" edge="1">
          <mxGeometry relative="1" as="geometry">
            <mxPoint x="539.71" y="180" as="sourcePoint" />
            <mxPoint x="539.71" y="290" as="targetPoint" />
          </mxGeometry>
        </mxCell>
        <mxCell id="VqqcHdD6JBQOt38PYsMC-2" value="consistent" style="dashed=1;strokeColor=#888888;endArrow=block;endFill=1;html=1;fontSize=10;startArrow=block;startFill=1;" edge="1" parent="1" source="VqqcHdD6JBQOt38PYsMC-6" target="VqqcHdD6JBQOt38PYsMC-5">
          <mxGeometry x="-0.4286" relative="1" as="geometry">
            <mxPoint x="525" y="125" as="sourcePoint" />
            <mxPoint x="785" y="125" as="targetPoint" />
            <mxPoint as="offset" />
          </mxGeometry>
        </mxCell>
        <mxCell id="VqqcHdD6JBQOt38PYsMC-7" value="consistent" style="dashed=1;strokeColor=#888888;endArrow=block;endFill=1;html=1;fontSize=10;startArrow=block;startFill=1;" edge="1" parent="1" source="VqqcHdD6JBQOt38PYsMC-9" target="VqqcHdD6JBQOt38PYsMC-8">
          <mxGeometry relative="1" as="geometry">
            <mxPoint x="525" y="255" as="sourcePoint" />
            <mxPoint x="785" y="255" as="targetPoint" />
          </mxGeometry>
        </mxCell>
        <mxCell id="arrow_s0_d0" value="Minimal Drift" style="strokeColor=#FF0000;strokeWidth=2;endArrow=block;endFill=1;html=1;fontSize=12;" parent="1" source="s0" target="d0" edge="1">
          <mxGeometry x="-0.1707" y="-5" relative="1" as="geometry">
            <mxPoint as="offset" />
          </mxGeometry>
        </mxCell>
        <mxCell id="VqqcHdD6JBQOt38PYsMC-13" value="" style="shape=umlActor;verticalLabelPosition=bottom;verticalAlign=top;html=1;outlineConnect=0;" vertex="1" parent="1">
          <mxGeometry x="567" y="200" width="15" height="30" as="geometry" />
        </mxCell>
      </root>
    </mxGraphModel>
  </diagram>
</mxfile>
